<?xml version="1.0" encoding="utf-8"?>
<!-- Generator: Adobe Illustrator 12.0.0, SVG Export Plug-In . SVG Version: 6.00 Build 51448)  -->
<!DOCTYPE svg PUBLIC "-//W3C//DTD SVG 1.1//EN" "http://www.w3.org/Graphics/SVG/1.1/DTD/svg11.dtd" [
	<!ENTITY ns_flows "http://ns.adobe.com/Flows/1.0/">
	<!ENTITY ns_extend "http://ns.adobe.com/Extensibility/1.0/">
	<!ENTITY ns_ai "http://ns.adobe.com/AdobeIllustrator/10.0/">
	<!ENTITY ns_graphs "http://ns.adobe.com/Graphs/1.0/">
	<!ENTITY ns_svg "http://www.w3.org/2000/svg">
	<!ENTITY ns_xlink "http://www.w3.org/1999/xlink">
]>
<svg  version="1.1" id="Layer_1" xmlns:x="&ns_extend;" xmlns:i="&ns_ai;" xmlns:graph="&ns_graphs;"
	 xmlns="&ns_svg;" xmlns:xlink="&ns_xlink;" xmlns:a="http://ns.adobe.com/AdobeSVGViewerExtensions/3.0/"
	 width="113.76" height="132.969" viewBox="0 0 113.76 132.969" overflow="visible" enable-background="new 0 0 113.76 132.969"
	 xml:space="preserve">
<path fill-rule="evenodd" clip-rule="evenodd" fill="#575759" d="M54,0.009c0.38,0.02,0.915-0.115,0.96,0.24c0,1.199,0,2.4,0,3.6
	c-1.188,0.172-2.391,0.33-3.84,0.24c-0.355,0.045-0.22,0.58-0.24,0.96c-0.32,0-0.64,0-0.96,0c-0.872,0.089-2.359-0.439-1.92,0.96
	c-2.579-0.659-2.754,1.086-4.8,0.96c-0.355,0.044-0.221,0.58-0.24,0.96c-0.871,0.088-2.359-0.439-1.92,0.96
	c-1.972-0.292-2.039,1.321-3.84,1.2c0.153,1.273-1.786,0.454-1.44,1.92c-0.479,0-0.96,0-1.44,0c0.154,1.273-1.785,0.454-1.439,1.92
	c-0.832-0.192-0.922,0.357-1.68,0.24c-0.681,1.64-2.643,1.997-3.12,3.84c-1.653-0.613-0.686,1.395-2.16,0.96c0,0.399,0,0.8,0,1.2
	c-1.487-0.527-0.433,1.488-1.92,0.96c0.17,0.89-0.41,1.03-0.24,1.92c-1.583,0.097-1.437,1.924-2.88,2.16c0,0.56,0,1.12,0,1.68
	c-1.49-0.45-0.351,1.729-1.92,1.2c0,0.32,0,0.641,0,0.96s0,0.64,0,0.96c-0.32,0-0.641,0-0.96,0c-0.196,2.523-1.946,3.494-2.16,6
	c-0.418-0.018-0.746,0.054-0.96,0.24c0,0.96,0,1.92,0,2.88c-0.32,0-0.641,0-0.96,0c0,0.96,0,1.92,0,2.88c-0.319,0-0.64,0-0.96,0
	c0,0.721,0,1.439,0,2.16c0,0.96,0,1.92,0,2.88c-0.32,0-0.641,0-0.96,0c0.242,4.083-0.745,8.214,0,12c0,0.64,0,1.28,0,1.92
	c0.46,1.54-1.026,5.026,0.96,5.04c0,0.641,0,1.28,0,1.92c0.143,0.897-0.533,2.613,0.96,2.16c0.271,1.01-0.739,3.299,0.96,2.88
	c0.164,0.821-0.22,1.827,0,2.64c0.177,0.654,0.459-0.216,0.96,0.48c0.287,0.398,0.727,2.723,1.2,3.84
	c0.111,0.264,0.666,0.121,0.72,0.24c0.49,1.098-0.228,2.363,1.2,1.92c0,0.32,0,0.641,0,0.96c0,0.24,0,0.479,0,0.72
	c0.045,0.355,0.58,0.221,0.96,0.24c0.017,1.584,0.578,2.622,1.92,2.88c-0.114,0.835-0.044,1.485,0.96,1.2
	c0.582,3.418,3.979,4.021,5.04,6.96c0.399,0,0.8,0,1.2,0c-0.033,1.634,1.953,1.247,1.92,2.88c0.891-0.17,1.029,0.41,1.92,0.24
	c-0.064,1.744,2.168,1.192,2.16,2.88c0.641,0,1.279,0,1.92,0c0,0.32,0,0.64,0,0.96c0.32,0,0.641,0,0.96,0s0.64,0,0.96,0
	c0,0.32,0,0.64,0,0.96c2.715,0.006,2.687,2.754,6,2.16c0,0.32,0,0.64,0,0.96c0.721,0,1.439,0,2.16,0c0,0.32,0,0.64,0,0.96
	c0.641,0,1.279,0,1.92,0c0.64,0,1.28,0,1.92,0c0,0.32,0,0.64,0,0.96c0.72,0,1.44,0,2.16,0c0.64,0,1.28,0,1.92,0
	c0,0.32,0,0.64,0,0.96c0.72,0,1.44,0,2.16,0c0.96,0,1.92,0,2.88,0c0.42,0.86,3.189-0.629,2.88,0.96
	c0.974-0.307,3.273,0.714,3.12-0.72c1.283-0.156,3.195,0.315,4.08-0.24c0.64,0,1.28,0,1.92,0c0.96,0,1.92,0,2.88,0
	c0.275,1.725-0.712,4.712,0.96,5.04c0.234,1.766-0.443,4.443,0.96,5.04c-0.156,2.156,0.211,3.789,0.24,5.76
	c0.609,0.11,0.68,0.761,0.96,1.2c0,0.32,0,0.64,0,0.96c0.302,1.058-0.79,3.511,0.96,3.12c0,0.64,0,1.28,0,1.92
	c-1.01,0.27-3.3-0.739-2.88,0.96c-6.08,0-12.16,0-18.24,0c0-0.32,0-0.64,0-0.96c-1.28,0-2.56,0-3.84,0c-0.64,0-1.28,0-1.92,0
	c0-0.32,0-0.64,0-0.96c-0.72,0-1.44,0-2.16,0c-0.64,0-1.28,0-1.92,0c0-0.32,0-0.64,0-0.96c-0.64,0-1.28,0-1.92,0
	c-0.08,0-0.16,0-0.24,0c-0.771-0.909-1.995-1.365-3.84-1.2c0.079-1.438-2.36-0.359-2.16-1.92c-0.64,0-1.28,0-1.92,0
	c0-0.32,0-0.64,0-0.96c-0.319,0-0.64,0-0.96,0s-0.641,0-0.96,0c0-0.32,0-0.64,0-0.96c-0.399,0-0.8,0-1.2,0c-0.24,0-0.48,0-0.72,0
	c0-0.32,0-0.64,0-0.96c-0.905,0.185-1.147-0.293-1.92-0.24c-0.388-1.293-1.576-1.784-3.12-1.92c0-0.32,0-0.64,0-0.96
	c-0.4,0-0.801,0-1.2,0c0-0.32,0-0.64,0-0.96c-0.319,0-0.64,0-0.96,0c-0.24,0-0.48,0-0.72,0c0-0.32,0-0.64,0-0.96c-0.4,0-0.8,0-1.2,0
	c-0.213-1.066-0.854-1.707-1.92-1.92c-0.055-1.706-2.328-1.191-2.16-3.12c-0.32,0-0.641,0-0.96,0c0.577-1.457-1.328-0.432-0.96-1.68
	c-0.908-0.372-1.671-0.89-1.92-1.92c-0.045-0.355-0.58-0.221-0.96-0.24c-0.683-1.398-1.63-2.53-3.12-3.12c0-0.32,0-0.64,0-0.96
	c0-0.24,0-0.48,0-0.72c-2.105-0.614-1.615-3.826-3.84-4.32c-0.253-0.867,0.229-2.47-1.2-2.16c0-0.24,0-0.479,0-0.72
	c0.114-0.835,0.045-1.484-0.96-1.2c0-0.32,0-0.64,0-0.96c0-0.24,0-0.479,0-0.72c-0.045-0.355-0.58-0.221-0.96-0.24
	c-0.076-0.964,0.388-2.468-0.96-2.16c-0.088-0.871,0.439-2.359-0.96-1.92c-0.126-1.155,0.33-2.89-0.96-2.88
	c-0.01-1.75-0.375-3.145-1.2-4.08c0-0.32,0-0.641,0-0.96c-0.143-0.897,0.533-2.613-0.96-2.16c0-0.64,0-1.28,0-1.92
	c-0.379-1.222,0.906-4.106-0.96-3.84c0-6,0-12,0-18c0.319,0,0.64,0,0.96,0c0-1.36,0-2.72,0-4.08c0-0.319,0-0.64,0-0.96
	c0.32,0,0.641,0,0.96,0c-0.18-1.939,0.286-3.234,0.24-5.04c1.222,0.342,0.552-1.208,0.72-1.92c1.313-0.128,1.209-1.672,1.2-3.12
	c1.29,0.01,0.835-1.725,0.96-2.88c0.32,0,0.641,0,0.96,0c0-0.72,0-1.44,0-2.16c0.319,0,0.64,0,0.96,0c0-0.319,0-0.64,0-0.96
	s0-0.641,0-0.96c0.32,0,0.641,0,0.96,0c0.54-2.181,1.218-4.223,3.12-5.04c0-0.641,0-1.279,0-1.92c1.488,0.527,0.432-1.488,1.92-0.96
	c-0.115-0.835-0.045-1.485,0.96-1.2c-0.387-1.667,1.263-1.297,0.96-2.88c0.32,0,0.641,0,0.96,0c0.376-1.384,2.145-1.376,2.16-3.12
	c1.687-0.873,2.967-2.153,3.84-3.84c1.666-0.334,2.471-1.529,3.12-2.88c0.879-0.161,2.212,0.132,1.92-1.2
	c0.835,0.115,1.484,0.045,1.2-0.96c0.479,0,0.96,0,1.44,0c-0.154-1.273,1.785-0.454,1.439-1.92c3.223-0.138,3.67-3.051,6.96-3.12
	c0.355-0.045,0.22-0.58,0.24-0.96c0.239,0,0.479,0,0.72,0c0.561,0,1.12,0,1.68,0c0.355-0.044,0.221-0.58,0.24-0.96
	c0.897-0.143,2.613,0.533,2.16-0.96c1.01-0.271,3.299,0.739,2.88-0.96c3.117,0.396,3.625-1.815,6.96-1.2
	C52.91,0.359,53.561,0.289,54,0.009z"/>
<path fill-rule="evenodd" clip-rule="evenodd" fill="#F5941C" d="M108.96,35.049c0.32,0,0.64,0,0.96,0c0,0.319,0,0.64,0,0.96
	c0,0.08,0,0.16,0,0.24c0.026,0.854-0.329,2.089,0.96,1.68c0,0.08,0,0.16,0,0.24c0.088,0.871-0.439,2.359,0.96,1.92
	c0.186,1.414-0.524,3.725,0.96,3.84c0,0.08,0,0.16,0,0.24c0.229,2.011-0.55,5.03,0.96,5.76c0,3.36,0,6.721,0,10.08
	c-1.491,0.829-0.728,3.912-0.96,6c-1.484,0.115-0.774,2.426-0.96,3.84c-0.418-0.018-0.746,0.054-0.96,0.24c0,0.32,0,0.641,0,0.96
	s0,0.64,0,0.96c-0.32,0-0.64,0-0.96,0c0,0.641,0,1.28,0,1.92c0,0.08,0,0.16,0,0.24c0,0.24,0,0.48,0,0.72c-0.32,0-0.64,0-0.96,0
	c0,0.32,0,0.64,0,0.96c0,0.08,0,0.16,0,0.24c0,0.32,0,0.641,0,0.96c-0.32,0-0.64,0-0.96,0c0.17,0.89-0.41,1.03-0.24,1.92
	c-0.319,0-0.64,0-0.96,0c0.243,1.603-1.412,1.308-0.96,3.12c-1.487-0.527-0.432,1.488-1.92,0.96c0,0.319,0,0.64,0,0.96
	s0,0.641,0,0.96c-0.38,0.021-0.915-0.115-0.96,0.24c0,0.239,0,0.479,0,0.72c-0.38,0.02-0.915-0.115-0.96,0.24c0,0.24,0,0.48,0,0.72
	c-2.292,0.828-2.971,3.27-5.04,4.32c0,0.24,0,0.479,0,0.72c-1.646,0.755-3.404,1.396-4.08,3.12c-0.32,0-0.64,0-0.96,0
	c-0.826-0.187-1.146,0.134-0.96,0.96c-0.32,0-0.64,0-0.96,0c-0.326,0.074-0.199,0.601-0.24,0.96c-0.24,0-0.479,0-0.72,0
	c-0.82-0.101-1.367,0.072-1.2,0.96c-0.872,0.089-2.359-0.439-1.92,0.96c-0.964,0.076-2.468-0.388-2.16,0.96
	c-0.497,0.143-1.576-0.297-1.68,0.24c-0.08,0-0.16,0-0.24,0c-0.826-0.187-1.146,0.134-0.96,0.96c-0.32,0-0.64,0-0.96,0
	s-0.64,0-0.96,0c-0.872,0.088-2.359-0.439-1.92,0.96c-0.32,0-0.64,0-0.96,0c-0.72,0-1.44,0-2.16,0c-1.01,0.27-3.3-0.739-2.88,0.96
	c-3.68,0-7.36,0-11.04,0c0-0.32,0-0.64,0-0.96c-1.04,0-2.08,0-3.12,0c-0.64,0-1.28,0-1.92,0c-0.32,0-0.64,0-0.96,0
	c0-0.32,0-0.64,0-0.96c-0.32,0-0.64,0-0.96,0c-0.64,0-1.28,0-1.92,0c-0.08,0-0.16,0-0.24,0c0-0.32,0-0.64,0-0.96
	c-0.32,0-0.64,0-0.96,0s-0.64,0-0.96,0c-1.018-0.423-1.442-1.438-3.12-1.2c-0.743-1.177-2.224-1.616-3.84-1.92c0-0.32,0-0.64,0-0.96
	c-0.319,0-0.64,0-0.96,0c-0.08,0-0.16,0-0.24,0c-0.24,0-0.48,0-0.72,0c0-0.32,0-0.64,0-0.96c-0.32,0-0.64,0-0.96,0
	c-0.08,0-0.16,0-0.24,0c0-0.32,0-0.64,0-0.96c-0.891,0.17-1.029-0.41-1.92-0.24c0-0.24,0-0.479,0-0.72
	c-0.789-0.571-1.839-0.881-1.92-2.16c-0.4,0-0.801,0-1.2,0c0.528-1.487-1.487-0.433-0.96-1.92c-0.32,0-0.641,0-0.96,0
	s-0.64,0-0.96,0c0-0.319,0-0.64,0-0.96c0-0.24,0-0.48,0-0.721c-1.104,0.063-0.599-1.48-1.92-1.199c0.408-1.528-1.21-1.03-1.2-2.16
	c-0.239,0-0.479,0-0.72,0c-0.16-0.879,0.131-2.211-1.2-1.92c0-0.08,0-0.16,0-0.24c0.187-0.826-0.134-1.146-0.96-0.96
	c0-0.239,0-0.479,0-0.72c0.187-0.826-0.134-1.146-0.96-0.96c0-0.08,0-0.16,0-0.24c-0.021-0.38,0.115-0.915-0.24-0.96
	c-0.239,0-0.479,0-0.72,0c0-0.32,0-0.641,0-0.96c0.1-0.82-0.072-1.368-0.96-1.2c0.112-2.832-1.491-3.949-2.16-6
	c0-0.24,0-0.48,0-0.72c-0.089-0.872,0.439-2.359-0.96-1.92c0-0.32,0-0.64,0-0.96c0-0.4,0-0.801,0-1.2
	c-0.088-0.872,0.439-2.359-0.96-1.92c0-0.96,0-1.92,0-2.88c0-0.08,0-0.16,0-0.24c1.415,0.186,3.726-0.525,3.84,0.96
	c1.36,0,2.72,0,4.08,0c-0.187,0.827,0.134,1.146,0.96,0.96c0,0.4,0,0.801,0,1.2c0.224,2.097,1.355,3.284,2.16,4.8
	c0,0.08,0,0.16,0,0.24c-0.285,1.165,0.848,0.912,0.96,1.68c0,0.08,0,0.16,0,0.24c-0.187,0.826,0.134,1.146,0.96,0.96
	c-0.187,0.826,0.134,1.146,0.96,0.96c0,0.32,0,0.641,0,0.96c-0.187,0.827,0.134,1.146,0.96,0.96c0,0.08,0,0.16,0,0.24
	c0,0.24,0,0.48,0,0.72c0.932,0.508,1.652,1.228,2.16,2.16c0.24,0,0.48,0,0.72,0c0.021,0.38-0.115,0.915,0.24,0.96
	c0.319,0,0.64,0,0.96,0c0,0.32,0,0.641,0,0.96c0,0.24,0,0.479,0,0.72c0.443,0.356,1.141,0.46,1.92,0.48c0,0.24,0,0.48,0,0.72
	c0.293,0.427,1.391,0.05,0.96,1.2c0.32,0,0.64,0,0.96,0c0.08,0,0.16,0,0.24,0c-0.527,1.488,1.488,0.432,0.96,1.92
	c0.319,0,0.64,0,0.96,0s0.641,0,0.96,0c0,0.32,0,0.641,0,0.96c2.714,0.006,2.687,2.754,6,2.16c0,0.319,0,0.64,0,0.96
	c0.4,0,0.8,0,1.2,0c0.32,0,0.64,0,0.96,0c0,0.32,0,0.641,0,0.96c0.32,0,0.64,0,0.96,0c0.64,0,1.28,0,1.92,0c0.32,0,0.64,0,0.96,0
	c0,0.319,0,0.64,0,0.96c0.4,0,0.8,0,1.2,0c0.88,0,1.76,0,2.64,0c0.4,0,0.8,0,1.2,0c0,0.32,0,0.64,0,0.96c1.28,0,2.56,0,3.84,0
	c0.326-0.074,0.199-0.601,0.24-0.96c0-0.32,0-0.641,0-0.96c-0.216-1.385,0.609-3.81-0.96-3.84c0-0.08,0-0.16,0-0.24
	c0.819-2.663-1.011-3.945-3.12-2.88c-0.32,0-0.64,0-0.96,0c-4.32,0-8.64,0-12.96,0c-0.08,0-0.16,0-0.24,0
	c-0.179-0.541-1.346-0.094-1.92-0.24c0.144-0.623-0.096-0.863-0.72-0.72c0-0.64,0-1.28,0-1.92c0.944,0.304,0.714-0.566,0.72-1.2
	c0-0.32,0-0.641,0-0.96c0.541-0.179,0.094-1.347,0.24-1.92c1.527-0.152,0.756-2.604,0.96-4.08c1.29,0.011,0.835-1.726,0.96-2.88
	c1.04,0,2.08,0,3.12,0c0,0.24,0,0.48,0,0.72c3.314,0.302,7.261,0.37,10.56,0c0.351-0.29,0.231-1.049,1.2-0.72
	c-0.302-1.059,0.79-3.51-0.96-3.12c0-0.64,0-1.28,0-1.92c0-0.399,0-0.8,0-1.2c0-0.24,0-0.48,0-0.72
	c1.347-0.253,2.916-0.284,4.56-0.24c0.257-0.464,0.46-0.981,1.44-0.72c0,0.56,0,1.119,0,1.68c0.143,0.897-0.533,2.613,0.96,2.16
	c0,0.641,0,1.279,0,1.92c0,0.24,0,0.48,0,0.721c0.104,0.536,1.183,0.097,1.68,0.239c0.26-0.78,1.128-0.952,2.16-0.96
	c0.355-0.045,0.221-0.58,0.24-0.96c1.556-0.124,1.53-1.829,2.88-2.16c0.909-0.771,1.421-1.938,1.2-3.84c0.24,0,0.479,0,0.72,0
	c0-0.319,0-0.64,0-0.96s0-0.641,0-0.96c0.897-0.144,2.613,0.533,2.16-0.96c2.328,0.328,2.651-1.348,4.8-1.2
	c0.355-0.044,0.221-0.58,0.24-0.96c0.872-0.088,2.359,0.439,1.92-0.96c1.227,0.106,2.363,0.123,2.4-0.96
	c0.944-0.385,0.083,1.037,0.72,0.96c0.24,0,0.479,0,0.72,0c0.153,0.887-0.311,2.391,0.24,2.88c0,0.721,0,1.439,0,2.16
	c0,0.96,0,1.92,0,2.88c0,0.32,0,0.64,0,0.96c-0.545,0.256-0.092,1.509-0.24,2.16c-1.29-0.01-0.835,1.725-0.96,2.88
	c-0.32,0-0.64,0-0.96,0c0,0.64,0,1.28,0,1.92c-0.32,0-0.64,0-0.96,0c0,0.32,0,0.64,0,0.96c0,0.08,0,0.16,0,0.24
	c-1.525-0.006-1.319,1.721-2.64,1.92c-0.436,1.965-2.986,1.814-3.36,3.84c-0.879,0.16-2.212-0.131-1.92,1.2c-0.32,0-0.64,0-0.96,0
	c-0.826-0.187-1.146,0.134-0.96,0.96c-0.08,0-0.16,0-0.24,0c-0.24,0-0.479,0-0.72,0c-0.354,0.445-0.197,1.402-0.96,1.439
	c1.562,0.52-0.215,4.375,1.68,4.561c-0.073,1.833,0.038,3.482,0.24,5.04c0.872-0.089,2.359,0.439,1.92-0.96c0.32,0,0.64,0,0.96,0
	c0.872-0.088,2.359,0.439,1.92-0.96c0.08,0,0.16,0,0.24,0c0.931-0.028,2.211,0.291,1.92-0.96c0.872-0.088,2.359,0.439,1.92-0.96
	c0.88-0.161,2.212,0.132,1.92-1.2c0.08,0,0.16,0,0.24,0c0.826,0.187,1.146-0.134,0.96-0.96c0.32,0,0.64,0,0.96,0
	c0.24,0,0.479,0,0.72,0c0.975-2.146,3.643-2.597,4.32-5.04c0.24,0,0.479,0,0.72,0c0.593-0.768,0.931-1.789,2.16-1.92
	c0-0.32,0-0.641,0-0.96c0-0.08,0-0.16,0-0.24c0.32,0,0.64,0,0.96,0c-0.17-0.89,0.41-1.03,0.24-1.92
	c1.398-0.202,1.802-1.397,1.92-2.88c0.32,0,0.64,0,0.96,0c0-0.4,0-0.8,0-1.2c0-0.239,0-0.479,0-0.72c0.32,0,0.64,0,0.96,0
	c0-0.32,0-0.641,0-0.96c0-0.08,0-0.16,0-0.24c0-0.319,0-0.64,0-0.96c0.32,0,0.64,0,0.96,0c0-0.32,0-0.641,0-0.96s0-0.64,0-0.96
	s0-0.641,0-0.96c0.32,0,0.64,0,0.96,0c0-0.32,0-0.64,0-0.96c0-0.08,0-0.16,0-0.24c0.537-0.104,0.098-1.183,0.24-1.68
	c1.494-0.266,0.761-2.76,0.96-4.32c0-0.32,0-0.64,0-0.96c0.24,0,0.479,0,0.72,0c-0.247-2.89,0.932-7.176,0-9.601
	c-0.099-0.258-0.391-0.22-0.72-0.239c0-0.32,0-0.64,0-0.96c-0.124-1.396,0.27-3.311-0.24-4.32c0.32-2.08,1.776-3.023,3.12-4.08
	C108.96,35.528,108.96,35.289,108.96,35.049z"/>
<path fill-rule="evenodd" clip-rule="evenodd" fill="#FDB811" d="M61.92,6.969c0.64,0,1.28,0,1.92,0c1.36,0,2.72,0,4.08,0
	c0.64,0,1.28,0,1.92,0c3.211-0.091,4.729,1.513,8.16,1.2c0,0.32,0,0.64,0,0.96c0.64,0,1.28,0,1.92,0c0.4,0,0.8,0,1.2,0
	c0.24,0,0.479,0,0.72,0c0,0.319,0,0.64,0,0.96c0.4,0,0.8,0,1.2,0c0.32,0,0.64,0,0.96,0c-0.187,0.826,0.134,1.146,0.96,0.96
	c0.32,0,0.64,0,0.96,0c0,0.319,0,0.64,0,0.96c2.091-0.331,2.108,1.412,4.08,1.2c0,0.319,0,0.64,0,0.96c0.64,0,1.28,0,1.92,0
	c-0.187,0.826,0.134,1.146,0.96,0.96c0,0.319,0,0.64,0,0.96c0.4,0,0.8,0,1.2,0c0.24,0,0.479,0,0.72,0
	c0.021,0.38-0.115,0.916,0.24,0.96c0.32,0,0.64,0,0.96,0c0,0.319,0,0.64,0,0.96c0.826-0.187,1.146,0.134,0.96,0.96
	c0.32,0,0.64,0,0.96,0c-0.187,0.827,0.134,1.146,0.96,0.96c-0.087,1.848,2.188,1.333,2.16,3.12c0.32,0,0.64,0,0.96,0
	c0,0.319,0,0.64,0,0.96c0.32,0,0.64,0,0.96,0c0,0.08,0,0.16,0,0.24c-0.241,0.801,0.333,0.787,0.96,0.72c0,0.32,0,0.64,0,0.96
	c0.074,0.326,0.601,0.199,0.96,0.24c0,0.32,0,0.64,0,0.96c-0.136,1.177,1.196,0.884,1.2,1.92c0.24,0,0.479,0,0.72,0
	c0,0.64,0,1.28,0,1.92c1.151-0.431,0.773,0.667,1.2,0.96c0,0.08,0,0.16,0,0.24c-0.187,0.826,0.134,1.146,0.96,0.96
	c0,0.319,0,0.64,0,0.96s0,0.641,0,0.96c0,0.24,0,0.479,0,0.72c-1.344,1.057-2.8,2-3.12,4.08c-1.372,0.492-0.244-1.516-0.96-1.68
	c0-0.08,0-0.16,0-0.24c0-0.32,0-0.64,0-0.96c-0.32,0-0.64,0-0.96,0c0-0.319,0-0.64,0-0.96s0-0.641,0-0.96s0-0.64,0-0.96
	c-0.32,0-0.64,0-0.96,0c0-0.32,0-0.641,0-0.96c0-0.08,0-0.16,0-0.24c0-0.319,0-0.64,0-0.96c-0.32,0-0.64,0-0.96,0
	c0-0.32,0-0.64,0-0.96c0-0.319,0-0.64,0-0.96c-1.332,0.291-1.039-1.041-1.2-1.92c-1.018-0.662-1.92-1.44-1.92-3.12
	c-0.32,0-0.64,0-0.96,0c0-0.319,0-0.64,0-0.96c-0.32,0-0.64,0-0.96,0c0-0.32,0-0.641,0-0.96c-0.32,0-0.64,0-0.96,0
	c0.147-1.827-1.97-1.39-1.92-3.12c-1.447,0.408-0.621-1.459-2.16-0.96c0-0.319,0-0.64,0-0.96c-0.32,0-0.64,0-0.96,0
	c0-0.32,0-0.641,0-0.96c-0.32,0-0.64,0-0.96,0c-0.08,0-0.16,0-0.24,0c0-0.319,0-0.64,0-0.96c-0.791-0.089-1.834,0.074-1.68-0.96
	c-0.32,0-0.64,0-0.96,0c-0.08,0-0.16,0-0.24,0c-0.074-0.325-0.601-0.199-0.96-0.24c0-0.239,0-0.479,0-0.72
	c-0.098-0.543-1.406,0.127-0.96-0.96c-0.89,0.17-1.03-0.41-1.92-0.24c-0.32,0-0.64,0-0.96,0c0-0.319,0-0.64,0-0.96
	c-0.4,0-0.8,0-1.2,0c-0.32,0-0.64,0-0.96,0c0-0.32,0-0.641,0-0.96c-0.32,0-0.64,0-0.96,0s-0.64,0-0.96,0c-0.4,0-0.8,0-1.2,0
	c0-0.24,0-0.479,0-0.72c-0.104-0.537-1.183-0.098-1.68-0.24c-0.08,0-0.16,0-0.24,0c-1.871-0.769-4.064-1.215-6.96-0.96
	c-1.6,0-3.2,0-4.8,0c-0.4,0-0.8,0-1.2,0c0,0.319,0,0.64,0,0.96c0,0.641,0,1.279,0,1.92c0,0.16,0,0.32,0,0.48s0,0.319,0,0.479
	c4.279,0.12,9.065-0.265,12.96,0.24c0,0.239,0,0.479,0,0.72c-0.32,0-0.64,0-0.96,0c0,0.721,0,1.439,0,2.16c0,0.96,0,1.92,0,2.88
	c0,0.32,0,0.64,0,0.96c-1.356-0.557-0.535,1.064-1.44,0.96c-1.906-1.665-5.261-0.437-8.399-0.72c-0.761,2.688,0.5,4.766,0.96,6.96
	c0,0.239,0,0.479,0,0.72c-0.261,0.98,0.257,1.184,0.72,1.44c0.146,0.573-0.301,1.741,0.24,1.92c0,0.319,0,0.64,0,0.96
	c0,0.96,0,1.92,0,2.88c0.826-0.187,1.146,0.134,0.96,0.96c1.022,0.018,1.679,0.401,2.88,0.24c-0.304,0.943,0.566,0.714,1.2,0.72
	c0.32,0,0.64,0,0.96,0c0.179,0.542,1.346,0.094,1.92,0.24c-0.01,1.29,1.726,0.835,2.88,0.96c-0.167,0.887,0.38,1.061,1.2,0.96
	c0.32,0,0.64,0,0.96,0c-0.187,0.826,0.134,1.146,0.96,0.96c0.32,0,0.64,0,0.96,0c-0.187,0.826,0.134,1.146,0.96,0.96
	c0.08,0,0.16,0,0.24,0c0,0.319,0,0.64,0,0.96c1.81-0.449,1.279,1.44,2.88,1.2c0,0.239,0,0.479,0,0.72
	c0.074,0.326,0.601,0.199,0.96,0.24c0,0.24,0,0.48,0,0.72c0,0.08,0,0.16,0,0.24c0.131,1.229,1.152,1.567,1.92,2.16
	c-0.184,2.503,1.426,3.214,1.2,5.76c-0.637,0.077,0.225-1.345-0.72-0.96c-0.037,1.083-1.174,1.066-2.4,0.96
	c0.439,1.399-1.048,0.872-1.92,0.96c-0.02,0.38,0.115,0.916-0.24,0.96c-2.148-0.147-2.472,1.528-4.8,1.2
	c0.453,1.493-1.263,0.816-2.16,0.96c0,0.319,0,0.64,0,0.96c-1.498-0.022-0.37-2.67-0.72-3.84c-1.186-0.574-1.472-2.049-2.16-3.12
	c-1.972,0.212-1.989-1.531-4.08-1.2c0.136-1.096-1.03-0.889-1.92-0.96c-1.022,0.097-2.473-0.232-3.12,0.24
	c-0.102,0.501,0.165,0.636,0.24,0.96c0,0.64,0,1.279,0,1.92c1.589-0.309,0.1,2.46,0.96,2.88c0,0.08,0,0.16,0,0.24
	c0.27,1.011-0.739,3.3,0.96,2.88c0,0.32,0,0.641,0,0.96c0,0.399,0,0.8,0,1.2c-0.98-0.262-1.184,0.256-1.44,0.72
	c-1.644-0.044-3.213-0.013-4.56,0.24c0-0.72,0-1.44,0-2.16c-0.32,0-0.64,0-0.96,0c0-0.64,0-1.28,0-1.92c0-1.36,0-2.72,0-4.08
	c-0.32,0-0.64,0-0.96,0c0-1.04,0-2.08,0-3.12c0-0.96,0-1.92,0-2.88c-0.32,0-0.64,0-0.96,0c-0.08,0-0.16,0-0.24,0
	c-0.56,0-1.12,0-1.68,0c0-0.319,0-0.64,0-0.96c-0.4,0-0.8,0-1.2,0c-0.32,0-0.64,0-0.96,0c-0.109-0.611-1.684,0.244-1.2-0.96
	c-1.526,0.166-2.313-0.406-3.84-0.24c0-0.319,0-0.64,0-0.96c-0.641,0-1.279,0-1.92,0c0-0.32,0-0.64,0-0.96c-0.32,0-0.641,0-0.96,0
	c-0.08,0-0.16,0-0.24,0c0-0.319,0-0.64,0-0.96c-0.319,0-0.64,0-0.96,0c-0.24,0-0.48,0-0.72,0c-0.021-0.38,0.115-0.916-0.24-0.96
	c-0.826,0.187-1.146-0.134-0.96-0.96c0-0.24,0-0.48,0-0.721c-0.074-0.325-0.602-0.198-0.96-0.239c0.114-0.835,0.045-1.485-0.96-1.2
	c0-0.32,0-0.64,0-0.96c0.17-0.89-0.41-1.03-0.24-1.92c-0.24,0-0.48,0-0.72,0c0-0.319,0-0.64,0-0.96c0-2.08,0-4.16,0-6.24
	c0-0.24,0-0.48,0-0.72c1.348,0.308,0.884-1.196,0.96-2.16c0-0.239,0-0.479,0-0.72c0.32,0,0.641,0,0.96,0c0-0.4,0-0.801,0-1.2
	c0.319,0,0.64,0,0.96,0c0-0.319,0-0.64,0-0.96c0-0.08,0-0.16,0-0.24c0-0.24,0-0.48,0-0.72c0.38-0.021,0.916,0.115,0.96-0.24
	c0.427-1.572,2.766-1.233,3.12-2.88c0.24,0,0.48,0,0.72,0c0.326-0.074,0.199-0.602,0.24-0.96c0.319,0,0.64,0,0.96,0s0.64,0,0.96,0
	c0-0.319,0-0.64,0-0.96c0.32,0,0.64,0,0.96,0c0.89-0.07,2.056,0.136,1.92-0.96c0.204,0.044,0.227-0.094,0.24-0.24
	c0.24,0,0.479,0,0.72,0c0-0.239,0-0.479,0-0.72c-0.16,0-0.319,0-0.479,0c-0.08,0-0.16,0-0.24,0c0-0.721,0-1.439,0-2.16
	c0-0.32,0-0.641,0-0.96c-0.712,0.169-2.262-0.501-1.92,0.72c0,0.08,0,0.16,0,0.24c-0.08,0-0.16,0-0.24,0c-0.64,0-1.28,0-1.92,0
	c0,0.32,0,0.641,0,0.96c-0.32,0-0.641,0-0.96,0c-0.24,0-0.479,0-0.72,0c-0.326,0.074-0.199,0.601-0.24,0.96
	c-2.708-0.388-2.446,2.193-4.801,2.16c-0.325,0.074-0.198,0.602-0.239,0.96c-0.319,0-0.64,0-0.96,0
	c-0.326,0.074-0.199,0.601-0.24,0.96c-0.24,0-0.48,0-0.72,0c-0.325,0.074-0.199,0.602-0.24,0.96c-0.38,0.021-0.915-0.115-0.96,0.24
	c-1.695,0.545-2.07,2.409-3.84,2.88c0.17,0.891-0.41,1.029-0.24,1.92c-0.24,0-0.48,0-0.72,0c-0.997,1.084-1.606,2.553-3.12,3.12
	c0,0.319,0,0.64,0,0.96s0,0.641,0,0.96c-0.32,0-0.641,0-0.96,0c0.313,1.593-0.979,1.58-0.96,2.88c0,0.08,0,0.16,0,0.24
	c-0.326,0.074-0.199,0.601-0.24,0.96c-0.32,0-0.64,0-0.96,0c0,0.64,0,1.28,0,1.92c0,0.319,0,0.64,0,0.96c-0.319,0-0.64,0-0.96,0
	c0,0.32,0,0.641,0,0.96c0,0.399,0,0.8,0,1.2c-0.32,0-0.641,0-0.96,0c0,0.96,0,1.92,0,2.88c0,0.64,0,1.28,0,1.92
	c-0.319,0-0.64,0-0.96,0c0,0.72,0,1.44,0,2.16c0,3.04,0,6.08,0,9.12c0.088,0.871-0.439,2.359,0.96,1.92c0,0.32,0,0.64,0,0.96
	c0,0.64,0,1.28,0,1.92s0,1.28,0,1.92c-1.36,0-2.72,0-4.08,0c-0.114-1.485-2.425-0.774-3.84-0.96c0-3.92,0-7.84,0-11.76
	c0-0.4,0-0.801,0-1.2c0.16,0,0.319,0,0.479,0c1.025-0.096,0.229-2.011,0.48-2.88c0-0.4,0-0.801,0-1.2c0-0.319,0-0.64,0-0.96
	c0.32,0,0.641,0,0.96,0c0.157-1.203-0.332-3.052,0.96-3.12c0-0.319,0-0.64,0-0.96c0-0.24,0-0.48,0-0.72
	c0.266-0.534,0.424-1.177,1.2-1.2c0-0.641,0-1.279,0-1.92c0.319,0,0.64,0,0.96,0c0-0.4,0-0.8,0-1.2c0-0.239,0-0.479,0-0.72
	c0.32,0,0.641,0,0.96,0c0-0.4,0-0.801,0-1.2c0-0.239,0-0.479,0-0.72c0.38-0.02,0.915,0.115,0.96-0.24c0-0.32,0-0.641,0-0.96
	c0.32,0,0.641,0,0.96,0c0.057-2.663,2.523-2.917,3.12-5.04c0-0.32,0-0.641,0-0.96c0.32,0,0.641,0,0.96,0c0-0.319,0-0.64,0-0.96
	c0.319,0,0.64,0,0.96,0c0-0.32,0-0.641,0-0.96c2.262-0.299,2.223-2.897,4.561-3.12c0.325-0.074,0.199-0.602,0.239-0.96
	c0.08,0,0.16,0,0.24,0c0.319,0,0.64,0,0.96,0c-0.285-1.005,0.365-1.075,1.2-0.96c0-0.32,0-0.641,0-0.96c0.239,0,0.479,0,0.72,0
	c2.041-0.04,1.689-2.47,4.08-2.16c-0.447-1.087,0.863-0.417,0.96-0.96c0.08,0,0.16,0,0.24,0c0.319,0,0.64,0,0.96,0
	c0-0.32,0-0.641,0-0.96c0.24,0,0.48,0,0.72,0c0.08,0,0.16,0,0.24,0c0.853-0.026,2.089,0.329,1.68-0.96c0.08,0,0.16,0,0.24,0
	c0.64,0,1.28,0,1.92,0c0-0.32,0-0.641,0-0.96c0.32,0,0.64,0,0.96,0C55.021,8.87,57.659,7.108,61.92,6.969z M59.04,24.009
	c0-0.641,0-1.279,0-1.92c-1.478-0.415-2.379,0.064-4.08,0c0.285,1.005-0.365,1.074-1.2,0.96c-0.121,1.238-1.075,1.645-1.92,2.16
	c0,1.92,0,3.84,0,5.76c0.557-0.077,0.922,0.038,1.2,0.24c0,0.239,0,0.479,0,0.72c0.045,0.355,0.58,0.221,0.96,0.24
	c0,0.32,0,0.64,0,0.96c0.32,0,0.64,0,0.96,0s0.64,0,0.96,0c-0.308,1.348,1.196,0.884,2.16,0.96c0.32,0,0.64,0,0.96,0
	c-0.067,0.627-0.081,1.201,0.72,0.96c0-0.319,0-0.64,0-0.96c0.08,0,0.16,0,0.24,0c0.16,0,0.32,0,0.479,0
	c0.974,0.093,0.265-1.496,0.48-2.16c-0.32,0-0.64,0-0.96,0c0-0.64,0-1.279,0-1.92c-0.216-1.385,0.609-3.81-0.96-3.84
	C59.04,25.448,59.04,24.729,59.04,24.009z"/>
</svg>
